<svg width="99" height="13" viewBox="0 0 99 13" fill="none" xmlns="http://www.w3.org/2000/svg">
<path d="M0.868289 13H2.21829V3.136L6.66429 13H7.69029L12.1543 3.136V13H13.5223V0.399999H12.1363L7.25829 11.002L2.47029 0.399999H0.868289V13ZM15.098 0.399999L19.724 7.348V12.478C19.724 12.766 19.958 13 20.246 13H21.092V7.348L25.646 0.399999H24.044L20.426 5.98L16.754 0.399999H15.098ZM41.0059 0.399999H40.1599V5.8H33.0679V0.399999H31.7179V12.478C31.7179 12.766 31.9519 13 32.2399 13H33.0679V7.096H40.1599V13H41.5279V0.922C41.5279 0.633999 41.2939 0.399999 41.0059 0.399999ZM44.3566 0.399999V13H51.3946V11.704H45.7066V6.916H50.7826V5.62H45.7066V1.696H51.3946V0.922C51.3946 0.633999 51.1606 0.399999 50.8726 0.399999H44.3566ZM53.8312 0.399999V13H61.5532V12.226C61.5532 11.938 61.3192 11.704 61.0312 11.704H55.1812V0.399999H53.8312ZM63.6398 0.399999V13H64.9898V0.399999H63.6398ZM77.0029 13L72.6649 6.466L76.6969 0.399999H75.1129L71.8729 5.278L68.6329 0.399999H67.0129L71.0629 6.484L66.7249 13H68.3089L71.8549 7.672L75.4009 13H77.0029ZM93.3986 2.092L92.5526 2.938L96.4226 6.754H86.9186V7.942H96.4226L92.5526 11.74L93.3986 12.586L98.6546 7.348L93.3986 2.092Z" fill="white"/>
</svg>
